<svg width="151" height="151" viewBox="0 0 151 151" fill="none" xmlns="http://www.w3.org/2000/svg">
<path fill-rule="evenodd" clip-rule="evenodd" d="M31.0417 111.968C34.6331 104.409 42.3383 99.1118 51.3291 98.6991C57.6748 105.674 66.3707 110.133 75.8892 110.133C85.4077 110.133 94.1036 105.674 100.449 98.6991C109.277 99.1005 116.773 104.123 120.455 111.354C128.306 101.523 133 89.0596 133 75.5C133 43.7436 107.256 18 75.5 18C43.7436 18 18 43.7436 18 75.5C18 89.3434 22.8921 102.044 31.0417 111.968ZM151 75.5C151 117.198 117.198 151 75.5 151C33.8025 151 0 117.198 0 75.5C0 33.8025 33.8025 0 75.5 0C117.198 0 151 33.8025 151 75.5ZM52.3867 70.1151C52.3867 54.3367 62.9628 41.531 75.8892 41.531C88.8155 41.531 99.3916 54.3367 99.3916 70.1151C99.3916 85.8935 88.8155 98.6991 75.8892 98.6991C62.9628 98.6991 52.3867 85.8935 52.3867 70.1151Z" fill="white"/>
</svg>
